<svg xmlns="http://www.w3.org/2000/svg" xmlns:xlink="http://www.w3.org/1999/xlink" width="1440" height="880" viewBox="0 0 1440 880"><defs><style>.a{clip-path:url(#b);}.b{fill:#14a38b;}.c{fill:#f2ac57;}.d{fill:#d6cf6e;}.e{fill:#2c2738;}.f,.g,.h{fill:#fff;}.g{font-size:34px;}.g,.h{font-family:IBMPlexSans-SemiBold, IBM Plex Sans;font-weight:600;}.h{font-size:28px;opacity:0.56;}</style><clipPath id="b"><rect width="1440" height="880"/></clipPath></defs><g id="a" class="a"><rect class="e" width="1440" height="880"/><g transform="translate(-2)"><g transform="translate(682)"><path class="b" d="M448,0,0,448H448Z" transform="translate(312 432)"/><path class="c" d="M760,0V760L0,0Z"/><path class="d" d="M314,314,0,0H314V314Z"/><path class="b" d="M156.5,156.5,0,0H313Z"/><path class="d" d="M0,0H222V222H0Z" transform="translate(538)"/><path class="e" d="M0,0H222V222Z" transform="translate(316)"/><path class="c" d="M271,0V541L0,270.5Z" transform="translate(489)"/><path class="d" d="M0,0H262V259Z" transform="translate(498 338)"/><path class="d" d="M129.5,0A129.5,129.5,0,1,1,0,129.5,129.5,129.5,0,0,1,129.5,0Z" transform="translate(441 158)"/><path class="c" d="M69,0A69,69,0,1,1,0,69,69,69,0,0,1,69,0Z" transform="translate(502 219)"/><path class="f" d="M0,182.915,183.331,0A129.5,129.5,0,1,1,0,182.915Z" transform="translate(477 195)"/><path class="d" d="M45,0A45,45,0,1,1,0,45,45,45,0,0,1,45,0Z" transform="translate(365 53)"/><path class="f" d="M61,0A61,61,0,1,1,0,61,61,61,0,0,1,61,0Z" transform="translate(601 595)"/><path class="e" d="M61,101.03a60.949,60.949,0,0,1-61-61A60.77,60.77,0,0,1,14.97,0L101.03,86.059A60.771,60.771,0,0,1,61,101.03Z" transform="translate(601 615.97)"/></g><path class="b" d="M0,0-173,173-346,0Z" transform="translate(1 290) rotate(-90)"/><path class="d" d="M450.5,0,0,450.5V0Z" transform="translate(0.5)"/><path class="c" d="M290,0,0,290V0Z" transform="translate(161)"/><path class="c" d="M90.5,0A90.5,90.5,0,1,1,0,90.5,90.5,90.5,0,0,1,90.5,0Z" transform="translate(250 50)"/><path class="d" d="M50.5,0A50.5,50.5,0,1,1,0,50.5,50.5,50.5,0,0,1,50.5,0Z" transform="translate(290 90)"/><path class="f" d="M0,90.734A90.735,90.735,0,0,1,156,27.7L27.7,156A90.461,90.461,0,0,1,0,90.734Z" transform="translate(250 50)"/><path class="f" d="M0,75.5V0H160.5V236Z" transform="translate(0.5)"/><path class="c" d="M35,69A34.291,34.291,0,0,0,69,35C69,15.446,53.554,0,35,0A34.717,34.717,0,0,0,0,35C0,53.554,15.446,69,35,69Z" transform="translate(46 118)"/></g><g transform="translate(58 370)"><g transform="translate(0 314)"><text class="g" transform="translate(0 48)"><tspan x="0" y="35">Revolutionary design system kit for </tspan><tspan x="0" y="79">busy designers</tspan></text><text class="h" transform="translate(0 36)"><tspan x="0" y="0">RevKit </tspan></text></g><g transform="translate(377)"><g transform="translate(0 10)"><path class="f" d="M0,105a20,20,0,1,1,20,20A20,20,0,0,1,0,105Zm66.816-3.389-.351-.68c-7.614-15.862-5.04-39.073,6.521-71.091H35V59.683a15,15,0,0,1-30,0V14.922A14.958,14.958,0,0,1,20,0H95a14.928,14.928,0,0,1,13.815,20.736c-14.864,34.929-19.332,58.077-15.431,67C95.521,91.4,98.1,91.566,107.9,86.328a15.045,15.045,0,0,1,20.318,6.079,14.883,14.883,0,0,1-6.111,20.205C112.974,117.495,104.2,120,96.242,120,83.945,120,73.585,114.026,66.816,101.61Z"/></g><path class="f" d="M89.114,115c-23.537,0-37.589-15.535-37.589-41.557,0-12.491,3.288-22.9,9.509-30.112,6.378-7.39,15.778-11.3,27.184-11.3,12.164,0,21.562,4.106,27.931,12.2,5.538,7.04,8.465,16.825,8.465,28.3v6.651H74.345v1.206c0,11.013,6.146,17.077,17.307,17.077,9.346,0,14.435-4.5,19.242-9.522l11.038,13.9C114.643,110.335,102.988,115,89.114,115ZM88.668,48.51c-8.7,0-14.323,6.4-14.323,16.317v1.211h27.45V64.679C101.795,54.4,97.01,48.51,88.668,48.51Zm148.1,64.684h-.005l-22.67,0V7.708h22.675v50.17h.9l14.764-20.4L275.841,7.708H301.5L266.445,51.08l38.182,62.1-26.7.008L250.335,67.248,236.763,83.871v29.323Zm157.046,0H380.682c-15.226,0-23.274-8-23.274-23.121V51.228H346.374V33.849h5.517c5.51,0,7.758-2.451,7.758-8.46v-13h19.836V33.849H395V51.228H379.485V95.809h14.324v17.379Zm-58.091,0H313.641V33.849h22.077v79.34Zm-157.046,0H152.419l-25.654-79.34h21.78l9.693,32.04,7.308,28.71h1.2l7.308-28.71,9.4-32.04h20.885l-25.658,79.336Zm-156.6,0H0V33.849H22.077V51.08h.747c1.055-5.178,5.125-17.231,19.984-17.231h3.879V54.707H41.171c-13.74,0-19.094,3.389-19.094,12.087v46.4Zm302.6-87.8c-8.15,0-12.825-4.022-12.825-11.034V11.03C311.855,4.02,316.529,0,324.68,0s12.829,4.02,12.829,11.03v3.326C337.509,21.367,332.833,25.389,324.68,25.389Z" transform="translate(165 5)"/></g></g></g></svg>